<svg xmlns="http://www.w3.org/2000/svg" xmlns:xlink="http://www.w3.org/1999/xlink" viewBox="0 0 194.72 59.7">
  <defs>
    <linearGradient id="a" x1="-565.26" y1="-8273.44" x2="-545.92" y2="-8302.69" gradientTransform="matrix(0.99, -0.14, -0.14, -0.99, -575.71, -8258.1)" gradientUnits="userSpaceOnUse">
      <stop offset="0" stop-color="#ffd221"/>
      <stop offset="1" stop-color="#fff836"/>
    </linearGradient>
    <linearGradient id="b" x1="35.59" y1="35.55" x2="62.28" y2="67.35" gradientUnits="userSpaceOnUse">
      <stop offset="0" stop-color="#fed51b"/>
      <stop offset="1" stop-color="#ff6b6b"/>
    </linearGradient>
  </defs>
  <title>V2_Vector</title>
  <g>
    <g>
      <g>
        <path d="M25.79,1.24c.5-1.5,1.63-1.66,2.52-.35l9.23,13.54A6.12,6.12,0,0,0,42,16.81l16.38.08c1.59,0,2.08,1,1.12,2.29l-10,13a6.14,6.14,0,0,0-.88,5l5,15.59c.47,1.51-.35,2.31-1.83,1.78L36.35,49a6.14,6.14,0,0,0-5,.71L18,59.25c-1.29.92-2.3.4-2.24-1.2l.49-16.37a6.16,6.16,0,0,0-2.22-4.57L.84,27.43c-1.27-.93-1.08-2.06.44-2.51L17,20.33a6.15,6.15,0,0,0,3.67-3.53Z" fill="url(#a)"/>
        <g>
          <path d="M31.67,9.49a1.53,1.53,0,0,1-.44,2,1.52,1.52,0,0,1-2.08.19,1.53,1.53,0,0,1,.44-2A1.52,1.52,0,0,1,31.67,9.49Z" fill="#fff"/>
          <path d="M29.83,13.36a1,1,0,0,1-.28,1.31,1,1,0,0,1-1.33.13,1,1,0,0,1,.28-1.3A1,1,0,0,1,29.83,13.36Z" fill="#fff"/>
        </g>
      </g>
      <g opacity="0.75">
        <g>
          <g opacity="0.6">
            <path d="M25.53,33.38a2.32,2.32,0,1,1-2.59-1.79A2.22,2.22,0,0,1,25.53,33.38Z" fill="#ff6b6b"/>
          </g>
          <g opacity="0.6">
            <path d="M41.36,30.77a2.74,2.74,0,0,1-2.13,2.85,2.15,2.15,0,1,1-.59-4.24C39.9,29.19,41.2,29.6,41.36,30.77Z" fill="#ff6b6b"/>
          </g>
        </g>
      </g>
      <g>
        <path d="M33.28,27.59c-.71-.44,0-2.14,2.47-2.49s3.58,1.07,3.14,1.7-1.1-.64-2.88-.39S33.86,28,33.28,27.59Z" fill="#434a54"/>
        <path d="M23.76,24.86c-3.27.69-1.7,5.42.95,4.95S27.05,24.18,23.76,24.86Z" fill="#434a54"/>
        <path d="M25.23,27c-.7,0-.75,1.4.06,1.41S26.25,26.94,25.23,27Z" fill="#fff"/>
        <path d="M34.49,31.25c.53-.88-.49-1.35-1-.55-.76,1.24-4.39,1.66-5.46.77-.74-.6-1.49,0-.8.79C28.62,33.76,33.2,33.39,34.49,31.25Z" fill="#ff6b6b"/>
        <path d="M24.51,21.46c-.9-.76-4.45,1.1-4.91,3.56,0,.47,1.07-.77,2.38-1.69C23.07,22.57,24.75,21.66,24.51,21.46Z" fill="#434a54"/>
        <path d="M33.67,24c.34-1.19,4.19-1.91,6,0,.28.42-1.38,0-3.07-.08C35.22,23.81,33.58,24.28,33.67,24Z" fill="#434a54"/>
      </g>
      <path d="M58.41,16.89l-10.09-.05C47,29.73,36.18,41.49,22.84,43.36a28.8,28.8,0,0,1-6.61.16v0l-.44,14.51c-.06,1.6,1,2.12,2.24,1.2l13.3-9.56a6.14,6.14,0,0,1,5-.71l15.43,5.53c1.48.53,2.3-.27,1.83-1.78l-5-15.59a6.14,6.14,0,0,1,.88-5l10-13C60.49,17.93,60,16.9,58.41,16.89Z" fill="url(#b)"/>
    </g>
    <g>
      <g style="isolation: isolate">
        <g>
          <path d="M85.49,11.22c.12-.62.23-.74,1-.78s3.2-.1,3.29,1.64c.12,2.29-3.67,13.54-4.6,15.36a1,1,0,0,1-.93.51l-2.56.13c-1.64.09-2.15-1.26-2.56-2.63-2.68-9.1-3.9-13.32-3.94-13.91,0-.36.46-.56,1.68-.62,2.61-.14,3.26.93,3.56,2.43.22,1.09.47,2.44,2.34,11C83.86,19.75,84.19,18.09,85.49,11.22Z" fill="#ffc200"/>
          <path d="M91.37,22.09c-.13-2.46.52-8.24,6.81-8.57,3.39-.18,4.68,1.42,4.78,3.42.23,4.46-5.8,5-7.39,5.11A2.26,2.26,0,0,0,98,24.41c1.71-.09,1.61-1.43,2.3-1.46.31,0,1.86.17,1.94,1.63.1,1.9-2.47,2.8-4.64,2.91C94.79,27.64,91.6,26.53,91.37,22.09Zm4.17-2c2-.13,3.36-.89,3.29-2.08a1.19,1.19,0,0,0-1.31-1.2C96.08,16.88,95.64,18.69,95.54,20.09Z" fill="#ffc200"/>
          <path d="M115,15.55c.08,1.41-.81,2.24-2.49,2.33-.47,0-.59,0-.61-.31-.05-.59-.16-1.63-1.5-1.56-.9,0-1.48.56-1.45,1.22.11,2,5.87,1,6.1,5.33.12,2.35-1.47,4.09-4.77,4.27-1.83.09-5.19-.24-5.28-1.78,0-.56.37-1.88,1.32-1.93s1.12.85,3.27.73c.81,0,1.56-.2,1.52-.88-.1-1.86-5.4-.77-5.64-5.31-.17-3.34,2.67-4.67,5.35-4.81S114.91,13.86,115,15.55Z" fill="#ffc200"/>
          <path d="M117.53,20.72c-.13-2.46.52-8.24,6.82-8.57,3.39-.18,4.67,1.41,4.77,3.41.24,4.47-5.8,5-7.38,5.11A2.24,2.24,0,0,0,124.18,23c1.71-.09,1.62-1.43,2.3-1.47.32,0,1.87.18,1.94,1.64.1,1.9-2.47,2.8-4.64,2.91C121,26.27,117.76,25.16,117.53,20.72Zm4.18-2c2-.13,3.35-.89,3.29-2.08a1.2,1.2,0,0,0-1.31-1.21C122.25,15.51,121.8,17.32,121.71,18.72Z" fill="#ffc200"/>
          <path d="M131.87,22.2c-.06-1.2.25-3.71.29-14.16,0-.39,0-.56.08-.64s.17-.08.39-.09l1,0c1.95-.1,2.59.87,2.65,2,.1,1.93-.32,9.83-.22,11.68.09,1.66,1.53,1.17,1.55,1.51.07,1.44-.41,3-2.68,3.1C132.88,25.62,132,24.66,131.87,22.2Z" fill="#ffc200"/>
          <path d="M147.23,16.84c0-.34,0-.56,0-.9-.06-1-.39-1.7-1.61-1.63s-1.54.89-1.77,2.07c-.06.3-.25.36-.74.39-1.66.08-2.52-.46-2.58-1.75-.11-2,1.65-3.81,5.39-4s5.23,1.29,5.37,4c0,.73-.2,4.12-.16,4.85.08,1.64,1.5,1,1.52,1.54.08,1.43-.51,3.2-2.76,3.32a2.32,2.32,0,0,1-2.65-2,4.53,4.53,0,0,1-3.86,2.33c-1.95.1-3.59-.69-3.71-3.06C139.52,19.13,142.13,17.23,147.23,16.84Zm-3.42,4a1,1,0,0,0,1.18.94c1-.05,2.07-1,2.12-2.9C145.4,18.94,143.75,19.52,143.81,20.81Zm.95-12.25c0-.12,1.35-2.25,2.3-3.82.18-.3.25-.38.54-.39.76,0,2.78.76,2.81,1.32s-3.59,3.95-4.34,4A1.74,1.74,0,0,1,144.76,8.56Z" fill="#ffc200"/>
        </g>
      </g>
      <g>
        <path d="M75.12,43.58c0-.86-.29-1.64-1.46-1.66-1.57,0-2.6,1.56-2.81,4-.12,1.34-.56,5.44-.57,5.88s-.13.48-.54.48l-.88,0c-2,0-2.48-.87-2.45-2.36s.57-4.61,1.33-15c0-.39.06-.56.14-.63s.17-.07.39-.07l1,0c2,0,2.53,1,2.51,2.14,0,.59-.17,2.3-.37,4.44a4,4,0,0,1,3.92-2.08c2.73,0,4,1.17,4,4.49,0,1-.56,5.54-.81,8.49-.06.71-.11.76-.67.75l-.78,0c-2,0-2.5-.82-2.48-2.19,0-.32,0-.61.06-.88C74.79,47.16,75.1,44.39,75.12,43.58Z" fill="#ff6b6b"/>
        <path d="M90.1,39.76c.1-.46.2-.56.86-.55,1,0,3.62.11,3.59,1.51,0,1.68-4.14,10.19-5.09,11.51-.27.37-.39.36-.83.36l-2.18,0c-1.34,0-1.69-1.08-2-2.16-2.68-9.87-3.09-10.61-3.08-10.81a.82.82,0,0,1,.81-.54c3,.05,4.15.41,4.41,2.1.09.66.66,6,1,8.32C88.41,46.77,88.94,44.36,90.1,39.76Z" fill="#ff6b6b"/>
        <path d="M98.82,52.76c-2,0-2.48-.87-2.45-2.36,0-1,.27-3.22.91-10.39,0-.39.06-.56.14-.64s.17-.07.39-.06h1c2,0,2.48.88,2.45,2.27,0,.95-.28,3.71-1,10.71,0,.39-.13.49-.54.48Zm1.2-18.4c1.39,0,2,.65,2,1.6,0,1.2-1,2.09-2.68,2.06-1.29,0-2-.55-1.95-1.6C97.39,35.12,98.43,34.33,100,34.36Z" fill="#ff6b6b"/>
        <path d="M103.75,47.38c0-2.47,1.09-8.19,7.4-8.08,3.39.06,4.56,1.74,4.52,3.74-.07,4.47-6.14,4.61-7.72,4.58a2.24,2.24,0,0,0,2.27,2.53c1.71,0,1.71-1.31,2.4-1.3.31,0,1.85.3,1.82,1.77,0,1.9-2.66,2.61-4.83,2.58C106.77,53.15,103.67,51.82,103.75,47.38Zm4.3-1.71c2,0,3.41-.65,3.43-1.85a1.19,1.19,0,0,0-1.22-1.29C108.82,42.51,108.25,44.28,108.05,45.67Z" fill="#ff6b6b"/>
        <path d="M117.09,53.08c-.2,0-.27-.1-.27-.27l.1-1.32c.13-1.78,2.29-2.7,6.4-8.56l-4.59-.08c-.27,0-.27-.13-.26-.35l.09-1.12c.06-.83.27-1.7,1.79-1.68l8.35.15a.35.35,0,0,1,.39.35L129,41.51a2.69,2.69,0,0,1-.52,1.29c-.22.31-3.29,3.75-5.89,7.2l5.23.09c.19,0,.39.11.38.35l-.11,1.2c-.09,1-.42,1.63-1.89,1.6Z" fill="#ff6b6b"/>
        <path d="M130.8,47.58c0-2.83,1.12-7.92,6.2-7.83,1.61,0,2.63.56,2.87,2,.17-2.53.31-3.53.47-5.58,0-.39,0-.56.13-.64s.12-.07.39-.06h.95c2,0,2.53,1,2.51,2.15,0,.05-1.27,14-1.45,15.47-.05.39-.08.48-.54.47h-.88c-1.39,0-2.44-.41-2.41-1.9a3.69,3.69,0,0,1-3.6,2C132.87,53.6,130.73,51.78,130.8,47.58Zm4.43-.61c0,1.69.31,3.43,1.9,3.46,1.39,0,2.49-1.3,2.54-4.21,0-1.64-.29-3.18-1.92-3.21S135.28,44.53,135.23,47Z" fill="#ff6b6b"/>
        <path d="M149.32,53.65c-2,0-2.48-.88-2.45-2.37,0-1,.28-3.22.91-10.39,0-.39.06-.56.14-.63s.17-.07.39-.07l.95,0c2,0,2.48.87,2.46,2.26,0,1-.29,3.71-1,10.71,0,.39-.13.49-.55.48Zm1.2-18.41c1.4,0,2,.65,2,1.6,0,1.2-1,2.09-2.68,2.06-1.29,0-2-.55-1.95-1.6C147.89,36,148.93,35.22,150.52,35.24Z" fill="#ff6b6b"/>
        <path d="M164.11,49.63c.34,0,.56.28.55.74a5.65,5.65,0,0,1-.82,2.16,5.5,5.5,0,0,1-4,1.54c-2.46,0-5.54-1.44-5.46-6.2,0-2.51,1-7.8,6.86-7.7,3.17.06,4.58,1.64,4.55,3.6,0,1.76-1.22,2.54-3.22,2.51-.49,0-.63-.06-.63-.35,0-1.59,0-2.5-1.08-2.52-2,0-2.3,3-2.32,4.29,0,2.32.65,3.11,2.24,3.14C162.7,50.87,163.55,49.62,164.11,49.63ZM161.73,36.1c1.32-1.13,2.83-2.2,3.34-2.19s1.2.9,1.2,1.07A33.52,33.52,0,0,1,163,38.49a2.94,2.94,0,0,1-1.62.34c-.47,0-1.13-.09-1.29-.39a37.39,37.39,0,0,1-2.14-3.6,2.41,2.41,0,0,1,1.36-1C159.84,33.82,160.87,34.94,161.73,36.1Z" fill="#ff6b6b"/>
        <path d="M177.45,54.38c-1.73,0-3.4-2.53-5.08-5.78-.15,1.71-.32,3.42-.47,4.95,0,.39-.13.49-.55.48h-.88c-2,0-2.47-.88-2.45-2.44,0-1.2.31-1.93,1.34-15,0-.39.06-.56.13-.63s.17-.07.39-.07l1,0c2,0,2.52,1.05,2.5,2.17,0,.63-.25,3.17-.52,6.2l4-3.5a1.14,1.14,0,0,1,.69-.33c.71,0,1.79,2.11,1.78,2.86,0,.93-1.57,1.93-4.63,3.17,2.69,3.08,5,5.29,5,5.69S178.94,54.41,177.45,54.38Z" fill="#ff6b6b"/>
        <path d="M189.63,46.56c0-.35.06-.57.07-.91,0-1-.27-1.71-1.49-1.73-1.37,0-1.6.77-1.91,1.94-.08.29-.28.34-.77.33-1.66,0-2.48-.63-2.46-1.92,0-2.06,1.93-3.68,5.66-3.62s5.13,1.65,5.08,4.39c0,.73-.49,4.1-.5,4.83,0,1.64,1.42,1.12,1.41,1.64,0,1.44-.74,3.16-3,3.12a2.33,2.33,0,0,1-2.51-2.17,4.57,4.57,0,0,1-4,2.06c-2,0-3.53-.94-3.49-3.31C181.78,48.3,184.52,46.59,189.63,46.56ZM186,50.28a1,1,0,0,0,1.11,1c1.05,0,2.14-.89,2.32-2.75C187.67,48.52,186,49,186,50.28Z" fill="#ff6b6b"/>
      </g>
    </g>
  </g>
</svg>
